<svg t="1680943058267" class="icon" viewBox="0 0 1024 1024" version="1.1" xmlns="http://www.w3.org/2000/svg" p-id="26145" width="200" height="200"><path d="M798.63 788.85H227.37c-58.41 0-105.92-47.52-105.92-105.92V369.24c0-58.41 47.52-105.92 105.92-105.92h571.26c58.41 0 105.92 47.52 105.92 105.92v313.69c0.01 58.41-47.51 105.92-105.92 105.92zM227.37 307.31c-34.15 0-61.92 27.78-61.92 61.92v313.69c0 34.15 27.78 61.92 61.92 61.92h571.26c34.15 0 61.92-27.78 61.92-61.92V369.24c0-34.15-27.78-61.92-61.92-61.92H227.37z" fill="#e6e6e6" p-id="26146"></path><path d="M658.58 699.26c-92.4 0-167.58-75.18-167.58-167.58S566.18 364.1 658.58 364.1s167.58 75.18 167.58 167.58-75.17 167.58-167.58 167.58z m0-291.16C590.44 408.1 535 463.54 535 531.68s55.44 123.58 123.58 123.58 123.58-55.44 123.58-123.58c0.01-68.14-55.43-123.58-123.58-123.58zM434.61 452.9h-184.4c-12.15 0-22-9.85-22-22s9.85-22 22-22h184.4c12.15 0 22 9.85 22 22s-9.85 22-22 22zM714.56 307.32c-4.46 0-8.97-1.35-12.86-4.17L500.12 157.57c-9.85-7.11-12.07-20.87-4.95-30.72 7.11-9.85 20.87-12.07 30.72-4.95l201.57 145.58c9.85 7.11 12.07 20.87 4.95 30.72-4.3 5.95-11.03 9.12-17.85 9.12zM389.82 553.68H250.21c-12.15 0-22-9.85-22-22s9.85-22 22-22h139.61c12.15 0 22 9.85 22 22s-9.85 22-22 22zM434.61 654.47h-184.4c-12.15 0-22-9.85-22-22s9.85-22 22-22h184.4c12.15 0 22 9.85 22 22s-9.85 22-22 22z" fill="#e6e6e6" p-id="26147"></path></svg>