<svg t="1680486200720" class="icon" viewBox="0 0 1024 1024" version="1.1" xmlns="http://www.w3.org/2000/svg" p-id="13073" width="200" height="200"><path d="M816 64h-88v112h104V80c0-8.8-7.2-16-16-16zM192 80v864c0 8.8 7.2 16 16 16h504V64H208c-8.8 0-16 7.2-16 16z m64 72c0-8.8 7.2-16 16-16h160c8.8 0 16 7.2 16 16v528c0 8.8-7.2 16-16 16H272c-8.8 0-16-7.2-16-16V152zM800 848h-72v112h88c8.8 0 16-7.2 16-16v-96h-32zM800 384h-72v240h104V384h-16zM800 640h-72v192h104V640h-16zM800 192h-72v176h104V192h-16z" fill="#FA464F" p-id="13074"></path><path d="M329 256.5h17.7v22.8h6.7v-22.8h17.8v3.9h6.5v-32.9h-24.2v-11.8h-6.7v11.8h-24.2v32.9h6.5v-3.9z m24.4-22.7h17.8v16.4h-17.8v-16.4z m-24.4 0h17.7v16.4H329v-16.4zM328 366.8h44.1v2.6h6.5v-60.1h-57.2v60.1h6.5v-2.6z m0-51.5h44.1v45.4H328v-45.4z" fill="#FA464F" p-id="13075"></path><path d="M365.6 347.8c-1.2-2.6-2.5-4.9-4.1-7.1l-5.1 1.6c1.4 2 2.7 4.4 3.9 7.1h-7V340h11.4v-5.7h-11.4v-8.4h13.5V320h-33.7v5.9h13.6v8.4h-11.4v5.7h11.4v9.5h-15.5v5.9h37.5v-5.9h-7l3.9-1.7zM332.6 426.6v-20.7h32.2v21.6c0 12.9 0.8 21.4 2.5 25.6 1.6 4.3 4.2 6.5 7.8 6.5 1.4 0 2.7-0.9 3.8-2.5 1-1.8 2-5.3 2.9-10.5l-5.8-2.8c-0.4 5.4-1 8.1-1.6 8.1-0.8 0-1.5-1.5-2-4.4-0.7-2.9-1-9.6-1-20v-27.9h-45.3v27c-0.2 11.7-2.7 21.5-7.3 29.2l5.5 4.4c5.4-9 8.2-20.3 8.3-33.6z" fill="#FA464F" p-id="13076"></path><path d="M362 411.6l-6.4-1.1c-1.5 5.3-3.4 10.3-5.9 14.9-3.1-4.1-6.4-8.4-10-12.9l-5.3 3.3c4.2 5.5 8 10.7 11.6 15.7-3.9 5.7-8.8 10.8-14.6 15.1l4.4 5.5c5.5-4.1 10.2-9 14.3-14.6 3.1 4.6 5.9 9.1 8.3 13.5l5.8-4c-2.8-4.8-6.2-10-10.1-15.7 3.2-5.8 5.9-12.3 7.9-19.7z" fill="#FA464F" p-id="13077"></path><path d="M432 136H272c-8.8 0-16 7.2-16 16v528c0 8.8 7.2 16 16 16h160c8.8 0 16-7.2 16-16V152c0-8.8-7.2-16-16-16z m-16 528H288V168h128v496z" fill="#FA464F" p-id="13078"></path><path d="M320 568h64v64h-64z" fill="#FA464F" p-id="13079"></path></svg>