<svg t="1680485923531" class="icon" viewBox="0 0 1024 1024" version="1.1" xmlns="http://www.w3.org/2000/svg" p-id="6491" width="200" height="200"><path d="M686.204229 674.873182c10.915585 0 20.791494-4.351089 27.911644-11.385282l0.159636-0.167822c7.037263-7.127313 11.396538-16.972523 11.396538-27.896294 0-10.903306-4.44114-20.764888-11.556174-27.889132-7.116057-7.145733-16.996059-11.560267-27.915737-11.560267-10.99745-0.01535-20.835496 4.351089-27.872759 11.400632l-0.156565 0.155542c-7.041356 7.01782-11.403701 16.895775-11.403702 27.893225 0.004093 10.888979 4.401231 20.773074 11.560267 27.900388 7.119127 7.12015 16.996059 11.556174 27.872759 11.556173l0.004093-0.007163z m107.012032 67.556494c-27.388736 27.376456-65.224383 44.329536-107.016125 44.329536-41.749786-0.004093-79.624319-16.933637-106.978263-44.325443-27.392829-27.393852-44.350002-65.21722-44.350002-107.008962 0-41.784578 16.95308-79.616133 44.350002-107.004869 27.358037-27.388736 65.224383-44.328513 106.978263-44.328512 41.795835-0.013303 79.624319 16.948987 107.016125 44.328512 27.395899 27.373386 44.311116 65.22029 44.311116 107.004869 0.004093 41.768206-16.914194 79.620226-44.311116 107.008962v-0.004093zM123.962042 817.350889c-11.162202 0-20.199001-9.040892-20.199001-20.20207 0-11.165272 9.037822-20.203094 20.194908-20.203094l313.094232-0.01535c11.161178 0 20.237886 9.063405 20.237886 20.218444 0 11.149922-9.080801 20.206164-20.237886 20.206164l-313.090139-0.004094z m0-80.858424c-11.162202 0-20.199001-9.040892-20.199001-20.206164 0-11.161178 9.037822-20.207187 20.194908-20.207187l276.383195-0.007163c11.157085 0 20.194907 9.060335 20.194907 20.21435 0.004093 11.152992-9.040892 20.210257-20.194907 20.210257l-276.379102-0.004093z m0-80.87275c-11.162202 0-20.199001-9.037822-20.199001-20.194908 0-11.173458 9.037822-20.203094 20.194908-20.203094l265.22611-0.007163c11.158108 0 20.194907 9.053172 20.194907 20.210257 0 11.142759-9.036799 20.206164-20.199 20.206164l-265.217924-0.011256z m0-80.858425c-11.162202 0-20.199001-9.037822-20.199001-20.190814 0-11.177551 9.037822-20.21435 20.194908-20.21435l276.383195-0.016373c11.157085 0 20.194907 9.068521 20.194907 20.230723 0.004093 11.138666-9.040892 20.197977-20.194907 20.197977l-276.379102-0.007163z m0-80.858424c-11.162202 0-20.199001-9.044985-20.199001-20.203094 0-11.163225 9.037822-20.207187 20.194908-20.207187l313.094232-0.00921c11.161178 0 20.237886 9.058288 20.237886 20.216397 0 11.151969-9.080801 20.212304-20.237886 20.212304l-313.090139-0.00921z" fill="#FA464F" p-id="6492"></path><path d="M845.36998 794.586465v0.016373c40.748995-40.744901 65.942743-97.022537 65.942743-159.178031s-25.193748-118.436199-65.946836-159.167798c-40.706016-40.748995-96.979558-65.937626-159.165751-65.937626-62.147308-0.008186-118.416757 25.197841-159.165751 65.937626-40.711132 40.735692-65.907951 97.009234-65.907951 159.167798 0 62.140145 25.197841 118.440293 65.907951 159.178031 40.756158 40.725459 97.018443 65.9233 159.165751 65.927393 62.189263-0.008186 118.455642-25.197841 159.165751-65.931486l0.004093-0.01228z m-159.165751 13.641668l-0.004093 0.004093c-47.708486 0-90.899085-19.351705-122.17433-50.61467s-50.63002-74.480169-50.630019-122.192749 19.354775-90.929784 50.630019-122.186609c31.275245-31.269105 74.465843-50.631043 122.17433-50.622856 47.747372 0 90.94104 19.339425 122.216285 50.622856 31.271152 31.265012 50.62695 74.462773 50.588064 122.186609 0 47.720766-19.316912 90.918527-50.588064 122.192749-31.275245 31.266035-74.46482 50.610577-122.212192 50.610577z" fill="#FA464F" p-id="6493"></path><path d="M187.988136 960.41802v14.993452c0 14.441892-11.719902 26.154631-26.158724 26.154631-14.433705-0.008186-26.154631-11.711716-26.154631-26.151561l0.004093-14.996522h-23.838893c-27.271056 0-52.027853-11.134572-69.985818-29.067978-17.909869-17.936475-29.072071-42.704529-29.072071-69.969445v-451.932046c0-27.245473 11.154015-52.010457 29.072071-69.950002 17.956941-17.945685 42.709645-29.065931 69.985818-29.065931l21.839357-0.017396 227.350554-87.820986c5.076612-1.945301 10.356861-2.09982 15.277931-0.799201l149.449478-57.761426a20.177511 20.177511 0 0 1 16.8354 1.130751l148.765911-57.475924c3.761666-1.438766 7.760739-1.013071 11.037359 0.82376l161.047607-62.227126c-0.116657-9.646688 4.32039-18.261886 15.235976-22.456409 10.880793-4.216013 25.993972 1.358948 30.716521 13.606875 4.756318 12.233601-2.721989 26.531207-13.598689 30.73801-10.872607 4.186337-19.956478 0.81455-26.354175-6.406907l-161.08854 62.206659c-1.199312 3.581565-3.917208 6.611568-7.677851 8.06466l-148.68814 57.425783c-1.917672 5.396906-6.080473 9.978239-11.840653 12.186529l-149.359427 57.690818c-2.764968 4.264108-6.845905 7.756645-11.966519 9.711156l-107.133805 41.361954h640.46765c27.271056 0 52.067762 11.149922 69.981724 29.083328 17.918056 17.922149 29.076164 42.709645 29.076165 69.969444l0.004093 451.900324c0 27.272079-11.162202 52.048319-29.080258 69.981725-17.913963 17.929312-42.709645 29.076164-69.985817 29.076164l-23.834801-0.008187v14.993453c0 14.441892-11.715809 26.154631-26.155654 26.154631-14.433705-0.008186-26.154631-11.711716-26.154631-26.151561v-14.996523H187.988136v0.001024z m705.01256-153.217285l-0.004094 0.008187c-19.316912 0-34.992909 15.66474-34.992909 35.008258 0 19.336355 15.68009 34.997002 34.992909 35.008259 19.354775 0 35.034864-15.675996 35.030771-35.008259 0-19.332262-15.675996-35.016445-35.026677-35.016445z m19.15523-444.488531H111.838958c-12.833257 0-24.514274 5.284343-32.993373 13.76651-8.475005 8.477052-13.754231 20.167278-13.754231 32.98928v451.900324c0 12.822001 5.280249 24.522461 13.754231 33.001558 8.483191 8.469888 20.160115 13.754231 32.993373 13.754232l800.316968-0.004094c12.833257 0 24.510181-5.26797 32.989279-13.751161 8.482168-8.483191 13.758324-20.168302 13.758325-32.989279V409.448551c0-12.812791-5.280249-24.488692-13.758325-32.969837-8.475005-8.494448-20.156022-13.754231-32.993372-13.754231l0.004093-0.012279z" fill="#FA464F" p-id="6494"></path><path d="M893.000696 463.634553c-19.316912 0-34.997002-15.669856-34.997003-35.002119 0-19.345565 15.675996-35.008258 34.992909-35.005189 19.354775-0.01535 35.030771 15.671903 35.030771 35.005189 0.004093 19.328169-15.675996 35.006212-35.030771 35.006212l0.004094-0.004093zM893.000696 807.200735c19.350682 0 35.026678 15.684183 35.026677 35.016445 0.004093 19.332262-15.675996 35.008258-35.030771 35.008259-19.312819-0.011256-34.992909-15.671903-34.992909-35.008259 0-19.343518 15.675996-35.008258 34.992909-35.008258l0.004094-0.008187z" fill="#FA464F" p-id="6495"></path></svg>