<svg t="1680943372005" class="icon" viewBox="0 0 1398 1024" version="1.1" xmlns="http://www.w3.org/2000/svg" p-id="38459" width="200" height="200"><path d="M360.056906 566.092309c-7.014592 6.979635-29.817841 22.686728-43.850908 31.414185-17.544247 10.471395-47.362088 20.94279-78.939403 13.963154-29.817841-6.983519-43.850908-24.434549-54.37668-36.653766-10.525772-12.215333-24.558839-43.633401-15.788657-78.539346 3.507296-15.707092 19.295953-59.340494 70.165337-71.555826 61.395156-17.454914 108.757244 24.434549 173.663579 89.010741-7.018476 10.471395-28.066135 31.414185-50.873268 52.360858m336.797503 212.927426c14.033067 12.215333 33.329021 29.670247 52.624973 50.613037 7.018476 6.983519 19.295953 24.434549 28.066135 36.653766 10.525772 17.45103 21.051543 43.629517 12.281362 73.299765-7.018476 27.926309-22.807133 40.145526-35.084611 50.61692-12.277477 8.727457-42.099202 22.686728-73.672633 15.707093-14.033067-3.49176-54.380564-17.454914-66.658041-66.324013-15.788657-55.848734 38.588022-127.404561 82.442815-160.566568m336.797502-324.628778c7.018476-6.983519 29.821725-22.690612 43.854792-31.418069 17.540363-10.471395 47.362088-20.94279 78.935519-13.959271 29.821725 6.979635 43.854792 24.434549 54.380564 36.649883 10.521888 12.219217 24.554955 43.633401 15.784773 78.539345-3.507296 15.707092-19.295953 57.596556-70.165337 71.559711-61.395156 17.45103-108.757244-24.434549-173.659695-89.014625 7.014592-10.471395 28.066135-31.414185 50.869384-52.356974m-336.797502-212.927426c-14.033067-12.219217-33.329021-29.670247-52.624974-50.616921-7.014592-6.979635-19.295953-24.434549-28.066135-36.649882-10.525772-17.454914-21.047659-43.633401-12.277478-73.303649 7.014592-27.926309 22.803249-40.141642 35.080727-50.613036 12.281362-8.727457 42.103086-22.690612 73.676517-15.710977 14.033067 3.49176 54.37668 17.454914 66.658041 66.324013 15.784773 55.848734-38.591906 127.408445-82.446698 160.570452m338.553092-29.670247c-105.249948 15.707092-168.400693 68.064067-235.058735 127.404561-14.033067-12.215333-38.591906-36.649882-38.591906-36.649883 85.953995-54.104796 128.053197-209.43955 24.558839-275.759679-103.494358-68.067951-217.514487 5.235697-238.562146 89.010741-12.281362 48.869099-1.75559 80.283284 3.507295 94.246438 17.540363 38.397704 112.26454 116.93705 138.578969 141.371599 114.020129 104.717833 187.692763 181.513241 308.727484 277.503618 68.413631 54.104796 178.926465 27.926309 226.288553-31.414185 80.691109-101.229958-10.525772-247.83337-126.301491-237.361976-47.362088 3.487876-89.46129 27.922425-124.545901 55.848735-14.029183 12.219217-47.362088 40.141642-47.362089 40.141642-15.784773-13.963155-36.836317-34.905944-52.624973-48.869099 22.803249-26.178487 56.13227-50.613037 87.709584-71.555827 45.606498-29.670247 98.231472-62.832254 159.626628-66.324013 87.7057-3.487876 164.889513 29.670247 214.007191 97.738198 105.246064 144.863359 21.051543 315.901321-96.479766 366.518242-75.424339 33.158123-159.626628 27.922425-228.040259-13.963155-1.751706-1.747822-19.295953-12.219217-22.799365-15.707092 0 0-36.840201-29.670247-57.88786-45.381223-105.249948-85.518981-420.995907-399.676365-515.720083-434.582309-164.889513-61.084432-294.6983 26.178487-357.845162 109.95353-147.34915 197.220334 7.014592 521.849112 306.975778 478.219595 105.246064-15.710976 168.396809-68.067951 235.054851-127.408445 14.033067 12.215333 38.591906 36.649882 38.591906 36.649882-85.953995 54.104796-128.053197 209.43955-24.558839 275.75968 103.494358 68.067951 217.514487-5.235697 238.56603-89.010741 12.277477-48.869099 1.751706-80.283284-3.511179-94.246438-17.540363-38.397704-112.26454-116.93705-138.575085-141.3716-114.020129-104.717833-191.203942-176.277544-308.731368-277.503617-70.165337-59.340494-173.659695-27.926309-224.532963 33.162006-82.442815 99.482136 10.525772 244.341611 126.301491 235.614154 47.362088-3.487876 87.7057-27.922425 122.790311-55.848734 15.784773-12.215333 47.362088-40.141642 47.362089-40.141642 15.784773 13.963155 36.836317 34.905944 52.624973 48.869099-22.807133 26.178487-56.136154 50.613037-87.709584 71.555827-45.606498 29.670247-96.479766 62.832254-159.626628 66.324013-87.709585 3.49176-164.889513-29.670247-214.007191-97.738198-105.249948-144.859475-21.047659-315.901321 96.479766-366.518242 84.198405-36.649882 178.922581-27.922425 249.087918 29.674131 128.053197 113.44529 466.602405 418.875217 515.720084 446.797641 22.803249 17.454914 43.854792 29.670247 57.887859 34.905945 164.889513 61.088316 294.694416-26.178487 357.845162-109.953531 149.10474-200.712093-5.262886-525.340872-305.220188-479.959648" fill="#e6e6e6" p-id="38460"></path></svg>