<svg t="1680934113708" class="icon" viewBox="0 0 1024 1024" version="1.1" xmlns="http://www.w3.org/2000/svg" p-id="12053" width="200" height="200"><path d="M676.92544 558.08c-52.36736 0-94.94528 43.06944-94.94528 96.01024s42.57792 96.01024 94.94528 96.01024c45.95712 0 84.33664-33.19808 93.04064-77.12768 1.16736-2.58048 1.88416-5.38624 1.88416-8.3968L771.85024 217.6c0-6.18496-2.80576-12.04224-7.59808-15.91296-4.79232-3.8912-11.07968-5.44768-17.16224-4.096l-383.56992 81.92c-9.44128 2.00704-16.19968 10.36288-16.19968 20.02944l0 378.14272c-15.33952-10.77248-33.91488-17.18272-53.98528-17.18272-52.34688 0-94.9248 43.06944-94.9248 96.01024s42.57792 96.01024 94.9248 96.01024c52.36736 0 94.94528-43.06944 94.94528-96.01024 0-2.29376-0.512-4.44416-0.67584-6.67648 0.18432-1.1264 0.67584-2.12992 0.67584-3.31776L388.28032 438.96832l342.60992-73.17504 0 209.48992C715.53024 564.49024 696.97536 558.08 676.92544 558.08zM676.92544 709.12c-29.75744 0-53.98528-24.69888-53.98528-55.05024s24.22784-55.05024 53.98528-55.05024 53.9648 24.69888 53.9648 55.05024S706.68288 709.12 676.92544 709.12zM293.31456 811.52c-29.75744 0-53.9648-24.69888-53.9648-55.05024s24.20736-55.05024 53.9648-55.05024 53.98528 24.69888 53.98528 55.05024S323.072 811.52 293.31456 811.52zM388.25984 397.08672l0-81.01888 342.60992-73.15456 0 80.9984L388.25984 397.08672z" p-id="12054" fill="#ffffff"></path></svg>