<svg t="1680486033514" class="icon" viewBox="0 0 1024 1024" version="1.1" xmlns="http://www.w3.org/2000/svg" p-id="8139" width="200" height="200"><path d="M897.2 148.2c5.4 0 10 4.6 10 10v710c0 5.4-4.6 10-10 10H126.8c-5.4 0-10-4.6-10-10v-710c0-5.4 4.6-10 10-10h770.4m0-50H126.8c-33 0-60 27-60 60v710c0 33 27 60 60 60h770.4c33 0 60-27 60-60v-710c0-33-27-60-60-60z" p-id="8140" fill="#FA464F"></path><path d="M250 513.2h80v234h-80zM472 274.4h80v472.8h-80zM704 383.8h80v363.5h-80z" p-id="8141" fill="#FA464F"></path></svg>