<svg t="1681296997705" class="icon" viewBox="0 0 1024 1024" version="1.1" xmlns="http://www.w3.org/2000/svg" p-id="13057" width="200" height="200"><path d="M426.666667 874.666667a21.333333 21.333333 0 0 1-21.333334 21.333333H64a21.333333 21.333333 0 0 1 0-42.666667h341.333333a21.333333 21.333333 0 0 1 21.333334 21.333334zM64 128h896a21.333333 21.333333 0 0 0 0-42.666667H64a21.333333 21.333333 0 0 0 0 42.666667z m0 384h597.333333a21.333333 21.333333 0 0 0 0-42.666667H64a21.333333 21.333333 0 0 0 0 42.666667z m896 341.333333h-85.333333a21.333333 21.333333 0 0 0 0 42.666667h85.333333a21.333333 21.333333 0 0 0 0-42.666667z m-90.053333-369.22c16.733333 17.42 23.806667 41.146667 26.533333 53.733334a21.333333 21.333333 0 1 0 41.706667-9.026667c-4.5-20.773333-14.666667-50.513333-37.466667-74.266667-11.04-11.493333-23.64-20.093333-37.493333-25.606666-10.306667-7.126667-19.44-16.58-27.153334-28.133334-19.64-29.393333-24.373333-64.04-25.446666-82.08A21.333333 21.333333 0 0 0 768 320v479.586667c-1.413333-1.02-2.846667-2-4.326667-3.006667-27.64-18.433333-64-28.58-102.34-28.58s-74.666667 10.146667-102.34 28.58c-14.253333 9.5-25.56 20.746667-33.613333 33.44-8.88 14-13.38 29.013333-13.38 44.666667s4.5 30.666667 13.38 44.666666c8.053333 12.666667 19.333333 23.94 33.613333 33.44C586.666667 971.186667 622.98 981.333333 661.333333 981.333333s74.666667-10.146667 102.34-28.58c14.253333-9.5 25.56-20.746667 33.613334-33.44 8.88-14 13.38-29.013333 13.38-44.666666V438a140.893333 140.893333 0 0 0 30.966666 27.82A21.18 21.18 0 0 0 846 468c8.706667 3.226667 16.766667 8.666667 23.946667 16.113333z" fill="#bfbfbf" p-id="13058"></path></svg>