<svg t="1680485773984" class="icon" viewBox="0 0 1024 1024" version="1.1" xmlns="http://www.w3.org/2000/svg" p-id="3894" width="200" height="200"><path d="M851.683624 959.480703H178.385381c-61.990545 0-112.276582-50.177662-112.276583-112.168207V174.050377c0-61.990545 50.249912-112.168207 112.276583-112.168207h673.262118c61.918295 0 112.168207 50.177662 112.168207 112.168207v673.262119c0.036125 62.02667-50.249912 112.168207-112.132082 112.168207z m56.102166-785.430326c0-30.959148-25.179143-56.138291-56.138291-56.138291H178.385381c-31.031398 0-56.138291 25.179143-56.138291 56.138291v112.168208h785.5387V174.050377z m0 168.306499H122.283215v504.95562c0 30.959148 25.070768 56.138291 56.138291 56.138291h673.262118c30.959148 0 56.138291-25.179143 56.138291-56.138291V342.356876h-0.036125zM206.418401 174.050377a28.033021 28.033021 0 0 1 28.033021 28.033021c0 15.461511-12.535384 28.105271-28.033021 28.105271-15.497636 0-28.033021-12.643759-28.03302-28.105271a28.033021 28.033021 0 0 1 28.03302-28.033021z m112.204332 0c15.569886 0 28.105271 12.535384 28.105271 28.033021 0 15.461511-12.535384 28.105271-28.105271 28.105271-15.461511 0-28.033021-12.643759-28.03302-28.105271 0-15.497636 12.535384-28.033021 28.03302-28.033021z m112.240458 0c15.497636 0 28.033021 12.535384 28.03302 28.033021 0 15.461511-12.535384 28.105271-28.03302 28.105271-15.461511 0-28.105271-12.643759-28.105271-28.105271 0-15.497636 12.643759-28.033021 28.105271-28.033021z" fill="#FA464F" p-id="3895"></path></svg>