<svg t="1681026029833" class="icon" viewBox="0 0 1024 1024" version="1.1" xmlns="http://www.w3.org/2000/svg" p-id="3319" width="200" height="200"><path d="M510.955102 831.738776c-23.510204 0-45.453061-9.926531-61.64898-27.167347L138.971429 468.114286c-28.734694-31.346939-29.779592-79.412245-1.567347-111.804082l117.55102-135.314286c15.673469-18.285714 38.661224-28.734694 63.216327-28.734694H705.306122c24.032653 0 47.020408 10.44898 62.693878 28.734694l118.073469 135.314286c28.212245 32.391837 27.689796 80.457143-1.567347 111.804082L572.081633 804.571429c-15.673469 17.240816-38.138776 27.167347-61.126531 27.167347z m-30.82449-55.379592c7.836735 8.881633 18.808163 13.583673 30.82449 13.583673 11.493878 0 22.465306-4.702041 30.82449-13.583673l312.946939-336.457143c14.628571-15.673469 15.15102-39.706122 1.044898-55.902041L736.653061 248.685714c-7.836735-8.881633-19.330612-14.106122-31.346939-14.106122H317.64898c-12.016327 0-23.510204 5.22449-31.346939 14.106122L168.75102 384c-14.106122 16.195918-13.583673 40.228571 1.044898 55.902041l310.334694 336.457143z" fill="#dbdbdb" p-id="3320"></path><path d="M506.77551 642.612245c-5.22449 0-10.971429-2.089796-15.15102-6.269388l-203.755102-208.979592c-7.836735-8.359184-7.836735-21.420408 0.522449-29.779592 8.359184-7.836735 21.420408-7.836735 29.779592 0.522449l189.12653 193.828572 199.053061-194.351021c8.359184-7.836735 21.420408-7.836735 29.779592 0.522449 7.836735 8.359184 7.836735 21.420408-0.522449 29.779592l-214.204081 208.979592c-4.179592 3.657143-9.404082 5.746939-14.628572 5.746939z" fill="#dbdbdb" p-id="3321"></path></svg>